<?xml version="1.0" standalone="no"?>
<!DOCTYPE svg PUBLIC "-//W3C//DTD SVG 20010904//EN"
 "http://www.w3.org/TR/2001/REC-SVG-20010904/DTD/svg10.dtd">
<svg version="1.0" xmlns="http://www.w3.org/2000/svg"
 width="226.000000pt" height="223.000000pt" viewBox="0 0 226.000000 223.000000"
 preserveAspectRatio="xMidYMid meet">

<g transform="translate(0.000000,223.000000) scale(0.100000,-0.100000)"
fill="#000000" stroke="none">
<path d="M1396 1900 c-20 -22 -36 -44 -36 -49 0 -5 -25 -39 -57 -77 -31 -38
-67 -93 -79 -121 l-24 -53 -47 7 c-59 9 -85 9 -143 -1 l-46 -8 -22 54 c-12 29
-41 76 -65 103 -24 28 -56 71 -70 96 -34 57 -60 82 -84 77 -47 -9 -89 -294
-52 -359 61 -109 64 -118 50 -152 -7 -17 -23 -67 -37 -111 -26 -85 -24 -130 6
-121 23 7 43 -19 38 -50 -6 -29 -1 -31 24 -8 18 16 18 16 12 -1 -6 -16 -2 -17
38 -11 34 5 49 3 61 -9 8 -9 18 -16 20 -16 13 0 67 -61 100 -112 20 -31 45
-62 56 -67 51 -28 102 -4 146 70 37 59 42 75 24 63 -6 -3 -3 5 6 20 10 15 20
24 23 22 3 -3 -1 -13 -9 -23 -12 -15 -12 -16 4 -10 10 4 21 7 23 7 2 0 4 7 4
15 0 8 7 15 16 15 8 0 23 7 31 16 12 12 27 14 55 10 32 -5 38 -3 38 11 1 17 1
17 14 1 19 -26 26 -22 26 13 0 34 18 58 39 51 19 -6 31 18 24 48 -12 49 -52
170 -63 189 -8 16 -6 30 11 63 12 24 28 51 37 61 28 32 29 172 1 278 -29 114
-43 124 -93 69z m-602 -84 c23 -37 13 -27 -37 36 -20 25 -37 50 -37 55 0 10
47 -48 74 -91z m610 32 c-55 -75 -64 -84 -38 -40 20 35 72 102 80 102 2 0 -17
-28 -42 -62z m81 -113 c2 -33 2 -46 -1 -30 -3 17 -11 60 -19 97 -18 83 -18 97
2 38 8 -25 16 -72 18 -105z m-780 88 c-4 -21 -11 -65 -15 -98 -7 -60 -7 -60
-9 -13 -1 48 16 148 26 148 3 0 2 -17 -2 -37z m30 7 c3 -5 1 -10 -4 -10 -6 0
-11 5 -11 10 0 6 2 10 4 10 3 0 8 -4 11 -10z m699 -8 c-18 -15 -19 -21 -9 -35
6 -9 15 -15 19 -12 3 3 2 0 -3 -6 -11 -13 -3 -41 10 -34 4 3 6 -11 4 -32 -3
-21 -7 -62 -10 -92 -4 -52 -15 -84 -15 -46 0 10 -3 16 -6 12 -9 -9 -10 -96 0
-90 4 3 5 -4 2 -15 -4 -12 4 -57 19 -104 27 -89 31 -112 15 -88 -7 11 -10 11
-10 2 0 -8 -5 -10 -12 -6 -10 6 -10 4 0 -8 16 -20 6 -64 -19 -82 -10 -7 -18
-15 -16 -17 1 -2 -3 2 -10 9 -9 11 -14 9 -27 -10 -9 -12 -22 -23 -29 -24 -29
-3 -57 -17 -57 -30 0 -14 -17 -18 -54 -14 -10 1 -23 -4 -27 -12 -6 -8 -7 -1
-5 20 2 18 -1 35 -7 39 -6 4 -8 -4 -5 -21 3 -14 2 -26 -3 -26 -8 0 -5 -36 7
-64 6 -15 4 -17 -6 -11 -10 6 -12 4 -7 -8 3 -8 -1 -21 -9 -27 -8 -7 -14 -18
-14 -26 0 -35 -71 -59 -108 -36 -17 12 -52 78 -45 86 4 3 1 6 -6 6 -9 0 -11 7
-7 23 13 44 15 57 7 57 -5 0 -6 12 -3 28 3 15 1 23 -4 19 -5 -5 -9 -16 -9 -24
0 -9 -12 -20 -27 -24 -16 -4 -28 -3 -28 2 0 4 -7 6 -15 3 -9 -4 -15 0 -15 9 0
8 6 18 13 20 6 3 -1 5 -18 5 -16 0 -39 2 -50 5 -11 3 -23 6 -26 6 -4 1 -10 11
-13 24 -6 20 -8 20 -19 6 -10 -13 -15 -14 -24 -4 -7 7 -10 15 -7 18 2 2 -2 10
-11 17 -8 7 -15 23 -15 36 0 13 -4 24 -10 24 -5 0 -10 -5 -10 -12 0 -6 -2 -9
-5 -6 -3 3 8 49 24 103 22 73 27 105 20 122 -5 13 -5 22 -1 19 5 -3 9 16 10
42 0 33 -2 41 -7 27 -7 -18 -9 -17 -15 10 -13 65 -15 159 -3 167 19 12 22 10
24 -15 0 -12 6 -35 13 -52 9 -23 13 -26 20 -15 8 13 10 13 10 0 0 -9 -6 -22
-12 -28 -9 -9 -10 -15 -2 -20 14 -9 24 -61 13 -68 -5 -3 -9 -15 -8 -27 0 -19
2 -19 11 6 5 15 14 24 20 21 7 -5 8 -2 3 6 -5 9 -2 10 15 5 19 -6 21 -4 16 17
-6 18 -4 17 10 -6 15 -27 18 -28 29 -13 7 9 10 29 7 44 -5 25 -6 25 -19 7 -13
-18 -14 -18 -20 4 -4 18 -8 21 -15 10 -8 -11 -9 -10 -6 1 2 8 14 15 27 16 26
2 44 -21 61 -81 13 -44 36 -54 43 -18 2 15 0 21 -9 17 -12 -5 -40 34 -31 44 3
2 8 -5 12 -17 5 -17 9 -19 21 -9 17 14 202 19 245 7 23 -7 28 -4 39 22 7 17
15 29 17 26 6 -5 -27 -69 -40 -77 -11 -8 -3 -39 10 -39 4 0 16 28 26 62 13 43
21 58 27 48 5 -8 5 -21 0 -30 -5 -9 -5 -22 1 -31 8 -11 13 -10 30 11 11 14 18
19 14 13 -11 -21 5 -36 22 -21 9 7 19 11 22 8 3 -3 7 4 10 15 2 11 8 23 15 27
8 5 7 11 -2 20 -6 6 -12 19 -12 28 0 12 2 12 9 1 13 -21 24 5 11 28 -15 29
-12 38 5 15 13 -18 14 -17 15 18 0 20 -5 40 -11 44 -8 4 -7 9 2 15 11 7 9 9
-6 9 -18 0 -18 2 5 24 14 14 30 25 35 25 6 0 0 -8 -11 -17z m-659 -22 c3 -5 1
-10 -4 -10 -6 0 -11 -7 -11 -15 0 -8 -9 -15 -20 -15 -23 0 -27 18 -5 26 8 4
12 10 9 15 -3 5 2 9 10 9 8 0 18 -4 21 -10z m109 -122 l18 -33 -21 25 c-12 14
-30 41 -41 60 l-20 35 23 -27 c12 -15 31 -42 41 -60z m442 50 c-21 -29 -20
-44 1 -27 15 13 15 12 2 -9 -8 -12 -19 -20 -25 -18 -6 2 -17 -1 -24 -7 -7 -7
1 9 19 36 18 26 34 47 37 47 3 0 -2 -10 -10 -22z m79 12 c3 -5 1 -10 -4 -10
-6 0 -11 5 -11 10 0 6 2 10 4 10 3 0 8 -4 11 -10z m-633 -42 c-7 -7 -12 -8
-12 -2 0 14 12 26 19 19 2 -3 -1 -11 -7 -17z m540 -84 c-3 -18 -7 -22 -13 -13
-4 7 -3 19 3 26 15 18 16 17 10 -13z m-610 -9 c3 -14 1 -25 -3 -25 -5 0 -9 11
-9 25 0 14 2 25 4 25 2 0 6 -11 8 -25z m765 -27 c-3 -7 -5 -2 -5 12 0 14 2 19
5 13 2 -7 2 -19 0 -25z m13 -344 c0 -14 -4 -23 -9 -20 -5 3 -7 15 -4 26 7 28
13 25 13 -6z m-770 -8 c0 -11 -19 -15 -25 -6 -3 5 1 10 9 10 9 0 16 -2 16 -4z
m270 -136 c0 -5 -5 -10 -11 -10 -5 0 -7 5 -4 10 3 6 8 10 11 10 2 0 4 -4 4
-10z m-30 -25 c11 -13 10 -14 -4 -9 -9 3 -16 10 -16 15 0 13 6 11 20 -6z"/>
<path d="M1021 1554 c0 -11 3 -14 6 -6 3 7 2 16 -1 19 -3 4 -6 -2 -5 -13z"/>
<path d="M1122 1540 c0 -14 2 -19 5 -12 2 6 2 18 0 25 -3 6 -5 1 -5 -13z"/>
<path d="M1101 1534 c0 -11 3 -14 6 -6 3 7 2 16 -1 19 -3 4 -6 -2 -5 -13z"/>
<path d="M1370 1531 c0 -11 4 -22 9 -25 4 -3 6 6 3 19 -5 30 -12 33 -12 6z"/>
<path d="M1391 1534 c0 -11 3 -14 6 -6 3 7 2 16 -1 19 -3 4 -6 -2 -5 -13z"/>
<path d="M1076 1523 c-6 -14 -5 -15 5 -6 7 7 10 15 7 18 -3 3 -9 -2 -12 -12z"/>
<path d="M1295 1519 c-4 -6 -5 -12 -2 -15 2 -3 7 2 10 11 7 17 1 20 -8 4z"/>
<path d="M1021 1504 c0 -11 3 -14 6 -6 3 7 2 16 -1 19 -3 4 -6 -2 -5 -13z"/>
<path d="M916 1497 c3 -10 9 -15 12 -12 3 3 0 11 -7 18 -10 9 -11 8 -5 -6z"/>
<path d="M1095 1499 c-4 -6 -5 -12 -2 -15 2 -3 7 2 10 11 7 17 1 20 -8 4z"/>
<path d="M1320 1499 c0 -5 5 -7 10 -4 6 3 10 8 10 11 0 2 -4 4 -10 4 -5 0 -10
-5 -10 -11z"/>
<path d="M1046 1477 c3 -10 9 -15 12 -12 3 3 0 11 -7 18 -10 9 -11 8 -5 -6z"/>
<path d="M1006 1445 c4 -8 8 -15 10 -15 2 0 4 7 4 15 0 8 -4 15 -10 15 -5 0
-7 -7 -4 -15z"/>
<path d="M1340 1370 c0 -4 -21 -7 -47 -7 -27 0 -61 -3 -78 -7 -16 -4 -38 -8
-47 -8 -11 1 -15 -5 -11 -15 4 -9 2 -14 -3 -10 -10 6 -13 -37 -4 -47 3 -3 5
-31 3 -63 -1 -33 1 -52 6 -44 5 8 11 9 15 3 3 -6 16 -8 27 -5 19 5 19 7 5 15
-12 7 -15 18 -11 41 7 38 13 46 24 28 20 -32 101 -3 101 37 0 8 6 12 14 9 10
-4 16 2 18 16 2 13 9 21 18 19 8 -2 11 0 7 5 -5 4 -13 9 -18 9 -5 1 -12 2 -16
3 -4 0 1 7 11 14 16 12 16 14 2 14 -9 0 -16 -3 -16 -7z m5 -29 c3 -5 0 -13 -6
-17 -7 -4 -9 -3 -5 4 3 6 -2 13 -11 15 -16 4 -16 5 -1 6 9 0 19 -3 23 -8z
m-65 -21 c0 -5 -4 -10 -10 -10 -5 0 -10 5 -10 10 0 6 5 10 10 10 6 0 10 -4 10
-10z m-45 -20 c3 -5 1 -10 -4 -10 -6 0 -11 5 -11 10 0 6 2 10 4 10 3 0 8 -4
11 -10z"/>
<path d="M799 1346 c-9 -19 -9 -20 4 -3 15 18 33 24 22 8 -3 -5 -1 -12 5 -16
5 -3 10 -12 10 -18 0 -8 -3 -8 -9 2 -6 9 -11 10 -15 2 -10 -16 2 -31 19 -24 9
3 15 -1 15 -9 0 -9 11 -27 25 -42 14 -15 25 -22 25 -15 0 6 6 9 14 6 8 -3 20
1 26 9 16 18 34 18 27 -1 -4 -8 -2 -17 3 -20 13 -8 6 -34 -15 -48 -14 -11 -15
-16 -5 -22 9 -6 11 -4 5 5 -5 9 -2 10 14 5 13 -4 21 -2 21 6 0 8 4 8 13 1 9
-8 12 2 11 44 0 30 4 57 8 60 5 3 2 16 -6 29 -11 17 -12 25 -3 35 10 10 8 12
-5 7 -10 -4 -18 -2 -18 4 0 6 -4 8 -9 5 -5 -4 -12 0 -14 6 -4 10 -6 10 -6 0
-1 -8 -6 -10 -13 -6 -7 4 -41 9 -76 9 -55 2 -64 -1 -73 -19z m151 -46 c0 -5
-8 -10 -17 -10 -15 0 -16 2 -3 10 19 12 20 12 20 0z"/>
<path d="M779 1303 c-13 -16 -12 -17 4 -4 9 7 17 15 17 17 0 8 -8 3 -21 -13z"/>
<path d="M1370 1311 c0 -5 5 -13 10 -16 6 -3 10 -2 10 4 0 5 -4 13 -10 16 -5
3 -10 2 -10 -4z"/>
<path d="M747 1233 c-4 -3 -7 -11 -7 -17 0 -6 5 -5 12 2 6 6 9 14 7 17 -3 3
-9 2 -12 -2z"/>
<path d="M1411 1223 c7 -12 15 -20 18 -17 3 2 -3 12 -13 22 -17 16 -18 16 -5
-5z"/>
<path d="M913 1213 c0 -8 6 -9 19 -2 10 5 18 11 18 12 0 2 -8 3 -18 3 -10 0
-19 -6 -19 -13z"/>
<path d="M1220 1224 c0 -1 6 -7 14 -13 10 -9 15 -8 19 2 3 8 -3 13 -14 13 -11
0 -19 -1 -19 -2z"/>
<path d="M830 1217 c0 -2 6 -10 14 -16 11 -9 16 -9 22 1 4 7 4 10 -1 6 -4 -4
-14 -3 -22 3 -7 6 -13 9 -13 6z"/>
<path d="M1306 1198 c3 -5 10 -6 15 -3 13 9 11 12 -6 12 -8 0 -12 -4 -9 -9z"/>
<path d="M1285 1150 c3 -5 11 -10 16 -10 6 0 7 5 4 10 -3 6 -11 10 -16 10 -6
0 -7 -4 -4 -10z"/>
<path d="M1042 1025 c4 -5 3 -14 -2 -20 -14 -17 7 -63 32 -71 26 -8 58 23 58
56 0 23 -3 27 -24 23 -13 -3 -34 1 -47 7 -13 7 -21 9 -17 5z"/>
<path d="M683 863 c-29 -4 -33 -8 -33 -34 0 -24 4 -29 25 -29 16 0 25 6 25 15
0 8 9 15 19 15 11 0 27 3 36 6 13 5 11 -1 -7 -29 -84 -131 -88 -141 -64 -150
19 -7 97 4 91 13 -3 4 -19 10 -36 14 l-31 6 22 32 c11 18 26 44 33 58 6 14 17
31 24 38 7 7 13 22 13 33 0 16 -7 19 -42 17 -24 0 -58 -3 -75 -5z"/>
<path d="M986 839 c-3 -17 -6 -65 -6 -106 0 -64 2 -74 16 -69 9 3 20 6 24 6 5
0 10 26 12 58 l3 57 60 -60 59 -60 -42 62 c-23 34 -42 64 -42 67 0 3 19 6 43
8 34 2 43 7 45 24 3 19 -3 23 -45 27 -26 3 -55 5 -63 5 -8 -1 -25 2 -36 6 -18
5 -22 2 -28 -25z m90 -21 c4 -5 -4 -8 -17 -6 -12 1 -24 8 -26 15 -5 14 34 6
43 -9z"/>
<path d="M1190 767 l0 -104 25 4 c22 5 24 11 27 62 l3 56 54 -55 c56 -57 57
-54 9 17 -15 23 -28 44 -28 47 0 3 19 6 43 8 34 2 43 7 45 24 3 19 -3 23 -45
27 -26 3 -55 6 -63 5 -8 0 -27 3 -42 7 l-28 7 0 -105z m96 51 c4 -5 -4 -8 -17
-6 -12 1 -24 8 -26 15 -5 14 34 6 43 -9z"/>
<path d="M841 831 c-7 -5 -15 -29 -18 -54 -5 -39 -2 -49 20 -71 32 -32 81 -35
97 -7 5 11 10 36 10 56 0 60 -63 105 -109 76z m79 -76 c17 -21 8 -50 -17 -53
-24 -4 -60 39 -48 58 9 15 51 12 65 -5z"/>
<path d="M1406 824 c-24 -23 -21 -99 4 -124 28 -28 85 -27 101 1 16 32 3 105
-24 124 -28 19 -61 19 -81 -1z m84 -69 c18 -22 8 -50 -20 -53 -26 -4 -50 20
-50 50 0 23 52 25 70 3z"/>
<path d="M790 508 c-13 -51 -27 -98 -31 -104 -5 -6 -5 -14 -1 -18 4 -4 14 16
22 46 12 40 21 54 37 56 22 3 25 -3 38 -65 12 -59 24 -35 18 35 -9 112 -16
137 -40 140 -18 3 -23 -7 -43 -90z"/>
<path d="M1000 592 c-80 -4 -90 -9 -90 -42 0 -35 12 -38 47 -10 14 11 34 20
44 20 15 0 13 -7 -14 -52 -18 -29 -40 -64 -50 -78 -29 -41 -23 -50 39 -50 40
0 55 3 52 13 -3 6 -18 14 -35 17 l-31 5 50 83 c28 46 47 86 42 90 -5 4 -29 6
-54 4z"/>
<path d="M1189 573 c-5 -94 -8 -132 -14 -165 -8 -40 0 -46 28 -25 14 9 19 34
24 115 6 100 6 102 -15 102 -17 0 -22 -6 -23 -27z"/>
<path d="M1267 518 c-11 -138 -10 -150 13 -143 10 3 42 6 70 7 27 0 47 4 44 9
-3 5 0 9 6 9 10 0 7 47 -5 59 -4 3 -12 -2 -19 -12 -8 -10 -26 -17 -45 -17
l-31 0 0 85 c0 65 -3 85 -14 85 -9 0 -15 -23 -19 -82z"/>
<path d="M1080 500 l0 -89 31 -17 c26 -13 33 -13 40 -3 4 8 6 16 3 18 -3 3 -9
-1 -14 -9 -8 -13 -10 -13 -10 -1 0 8 -7 22 -16 32 -11 12 -16 40 -17 88 -3
103 -17 87 -17 -19z"/>
</g>
</svg>
