<?xml version="1.0" encoding="UTF-8"?>
<svg xmlns="http://www.w3.org/2000/svg" version="1.1" viewBox="0 0 1920 1080">
  <!-- Generator: Adobe Illustrator 29.0.1, SVG Export Plug-In . SVG Version: 2.1.0 Build 192)  -->
  <defs>
    <style>
      .st0 {
        fill: #fff;
        stroke: #000;
        stroke-miterlimit: 10;
      }

      .st1 {
        fill: #005f82;
      }

      .st2 {
        fill: #fbfcfc;
      }

      .st3 {
        fill: #fefefe;
      }
    </style>
  </defs>
  <g id="Capa_1">
    <path class="st1" d="M717.8,829.45h-305.35s-1.54-8.45-1.54-8.45l-1.01-710.45c.86-8.51,3.52-3.81,8.49-3.37,384.34.38,768.8-1.37,1153,1.4,2.15,1.41-.78,5.09-1.1,7.95-4.11,37.67,2.38,84.53,1.12,122.91-1.44,173.33,1.22,346.8,2,519.52.29,63.79-.32,127.6-.04,191.37-31.68,1.86-63.68.88-95.49.95-235.61.47-472.47.16-708.76,1.42-14.02.07-28.84,1.88-42.84.66-1.56-.14-8.46-1.04-8.46-2.53v-121.39ZM633.84,112.11h-217.39l-.5,712.35,305.15-1.91c4.72,2.38,1.73,7.05,1.65,11.35-.67,37.76-.09,75.77,1.05,113.44h185.9v-111.9c0-.2,4-.2,4,0v112.9l281.85-2.5v-108.4h3v109.9h90.95v-221.3c0-.11,1.39-1.5,1.5-1.5h57.47c1.27,4,1.93,23.59-.23,25.74-2.38,2.36-8.42.22-11.22.19-7.51-.08-15.18-.41-22.53,1.04v195.82h62.97l.07-249.14,2.33-1.57,49.07.95c4.14.75,2.27,4.99,1,4.99h-46.98c-.11,0-1.5,1.39-1.5,1.5v240.78c0,.11,1.39,1.5,1.5,1.5h85.96c.11,0,1.5-1.39,1.5-1.5v-303.22h-92.95v-5h98.95l-1,309.72,92.96-1-.95-364.14c-.07-1.58-.95-2.45-2.55-2.52l-60.53-1.44-.8-1.2-3.14-305.08h64.97v-73.93h-103.45c-3.59,0-2.74-5-1-5h104.45v-77.43c0-.11-1.39-1.5-1.5-1.5h-155.42l-2,160.85c-1.3.33-4.99-.19-4.99-1.5v-30.47l-216.89-1v27.47c0,3.29,1.97,5.14-4,4.5v-31.47l-377.81-2.5v194.82h41.48c3.54,0-.19,6.41-.23,7.27-.06,1.23.81,3.25.79,5.17-.19,18.83.02,37.68-.06,56.49h338.82v-137.37c0-.11,1.39-1.5,1.5-1.5h133.93c.11,0,1.5,1.39,1.5,1.5v90.42h80.96v-134.38c0-1.25,4.4-3.59,5.05,1.95l.53,135.45c-1.38,1.88-17.47.78-21.11.93-20.87.87-44.08,2.73-64.97,1.09-1.93-.15-3.62-.59-5.45-1.05v-90.92h-126.93v179.33c0,.83-2.42,1.77-3.45,1.55-118.91-1.2-238.11,1.15-356.82-2.09-10.16-.28-20.42.69-30.56-.43l.03-183.36h-90.45l-73.46-77.43V112.11ZM796.76,112.11h-157.92v173.34l71.46,73.43h87.45l-1-246.77ZM1403.45,113.11l-600.07-.92-1.17.88-.5,2.5,1.04,118.44,598.05,1.85,1.2-.8c.31-40.65,1.21-81.3,1.44-121.96ZM1565.36,275.96h-60.97l3,296.72c7.59.45,55.97,2.7,59.03.57,1.55-1.07,1.06-18.77.98-22.08-1.88-74.03-.93-148.64-2.08-222.71-.27-17.49.29-35.02.04-52.49ZM839.74,438.81h-35.48c-1.09,0-1.43,2.44-1.55,3.45-1.74,14.85.93,31.13,1.1,45.96.18,16.28.35,32.77,0,49.05-.05,2.38-2.12,5.45.6,6.3l378.57,2.05c2.85-1.54.61-4.49.53-7.35-.29-10.21.38-20.4,1.05-30.51h-341.32c-.25,0-3.5-3.25-3.5-3.5v-65.44ZM1347.47,727.54h-54.47l1.14,217.7c7.29-2.41,17.92,4.84,18.36-6.44.19-4.92-.07-10.62.03-15.91.99-55.28-.87-110.65.01-165.94.38-3.48-4.07-4.13-4.05-7.44,7.11-2.87,32.67,1.1,36.97-1.5.45-.27,2-2.71,2-3v-17.48Z"/>
    <path class="st2" d="M633.84,112.11v174.34l73.46,77.43h90.45l-.03,183.36c10.13,1.11,20.39.15,30.56.43,118.71,3.24,237.92.89,356.82,2.09,1.02.22,3.45-.72,3.45-1.55v-179.33h126.93v90.92c1.83.46,3.52.9,5.45,1.05,20.89,1.64,44.1-.22,64.97-1.09,3.64-.15,19.72.96,21.11-.93l-.53-135.45c-.64-5.54-5.05-3.2-5.05-1.95v134.38h-80.96v-90.42c0-.11-1.39-1.5-1.5-1.5h-133.93c-.11,0-1.5,1.39-1.5,1.5v137.37h-338.82c.08-18.82-.13-37.66.06-56.49.02-1.92-.85-3.94-.79-5.17.04-.86,3.78-7.27.23-7.27h-41.48v-194.82s377.8,2.5,377.8,2.5v31.47c5.97.64,4-1.2,4-4.5v-27.47l216.89,1v30.47c0,1.31,3.69,1.83,4.99,1.5l2-160.85h155.42c.11,0,1.5,1.39,1.5,1.5v77.43h-104.45c-1.74,0-2.59,5,1,5h103.45v73.93h-64.97l3.14,305.08.8,1.2,60.53,1.44c1.6.08,2.48.94,2.55,2.52l.95,364.14-92.96,1,1-309.72h-98.95v5h92.95v303.22c0,.11-1.39,1.5-1.5,1.5h-85.96c-.11,0-1.5-1.39-1.5-1.5v-240.78c0-.11,1.39-1.5,1.5-1.5h46.98c1.27,0,3.13-4.24-1-4.99l-49.07-.95-2.33,1.57-.07,249.14h-62.97v-195.82c7.35-1.45,15.02-1.12,22.53-1.04,2.8.03,8.84,2.17,11.22-.19,2.16-2.15,1.5-21.74.23-25.74h-57.47c-.11,0-1.5,1.39-1.5,1.5v221.3h-90.95v-109.9h-3v108.4l-281.85,2.5v-112.9c0-.2-4-.2-4,0v111.9h-185.9c-1.14-37.68-1.72-75.68-1.05-113.44.08-4.29,3.07-8.97-1.65-11.35l-305.15,1.91.5-712.35h217.39ZM536.89,224.01v-67.44c0-.11-1.39-1.5-1.5-1.5h-68.46v68.44c0,1.09,2.44,1.43,3.45,1.55,16.4,1.92,34.65-.83,51.02-1.13,4.75-.09,10.22,2.71,15.49.08ZM604.58,190.27c-14.05,2.89-19.06,22.41-10.13,33.65,16.84,21.21,45.07-4.05,32.23-24.23-4.66-7.33-13.53-11.19-22.1-9.43ZM470.43,236c-.33.51-1.5,1.23-1.5,1.5v65.94c0,.11,1.39,1.5,1.5,1.5h65.97c.11,0,1.5-1.39,1.5-1.5v-65.94c0-.11-1.39-1.5-1.5-1.5h-65.97ZM607.59,246.23c-17.71,3.31-21.89,29.23-6.26,38.74,18.95,11.53,38.88-12.05,26.34-30.33-4.22-6.14-12.74-9.79-20.08-8.42ZM1464.41,268.97c-4.37.89-6.32,2.96-11.27,1.76-1.34-.32-1.93-2.28-3.71-1.76v7.99c1.1,1.1,8.41-2.31,10.36-2.04.66.09.56,1.81,1.29,2.03,5.35,1.61,2.88-4.07,3.33-7.97ZM1464.42,284.95c-4.27,1.09-10.78-2.63-13.99.51-.94.91-1.57,2.87-1,3.48.45.49,3.66-1.17,2.99,1.49-2.3,1.15-4.52,2.8-2.56,5.58,1.64,2.32,22.42,1.76,11.56-4.56,3.45-1.61,3.36-2.74,3-6.5ZM987.38,285.15c-2.67.8-4.87,5.58-4.68,8.24.51,7.35,12.99,9.57,12.98,3.08-.01-5.64.08-13.81-8.3-11.32ZM1010.48,299.77c3.07-1.91,1.67-13.34-2.52-14.62-10.61-3.24-14.29,12.34-4.6,14.57,1.43.33,6.15.65,7.12.04ZM1018.86,285.18c-.63.36-3.11,4.98-3.41,6.14-1.78,6.9,6.69,11.34,11.26,8.17,3.32-2.3.52-19.13-7.85-14.32ZM1041.63,284.96h-8.99c-.12,4.29,3.1,6.62,1.98,11.32-.22.94-2.26.22-1.99,2.15.61,4.46,5.7.57,9.01,1.5-2.46-6.11-2.45-8.87,0-14.98ZM1052.64,287.94c-.28-.24-2.56-6.39-5.56-2.04-.55.8-.95,13.55-.45,14.04,1.51,1.44,5.06-.56,4.5-3.01,3.11,1.52,4.37,3.99,8.48,3.01-.68-4.15,2.59-15.74-4.4-14.03-.58.14-.69,3.59-2.57,2.03ZM1072.3,287.26c-.69-.93-4.77-2.96-5.67-2.31l-4.01,14.98h13c1.22-1.23-2.16-11.1-3.32-12.67ZM1464.19,311.72c5.47-9.59-17.34-16.28-14.54-.5,1.1,6.2,13.48,2.37,14.54.5ZM537.89,374.87v-66.44c0-.11-1.39-1.5-1.5-1.5h-65.97c-.11,0-1.5,1.39-1.5,1.5v64.94c0,.11,1.39,1.5,1.5,1.5h67.46ZM1464.42,319.92c-3.3.97-11.7-1.78-13.73.26-3.78,3.8,1.44,4.41,1.72,4.76,1.62,2-1.98,2.11-2.5,2.93-3.91,6.16,3.32,3.04,5.77,3.25,1.62.13,3.23,1.7,5.08,1.54,5.67-.48,3.19-8.8,3.65-12.74ZM1464.41,337.9c-.52-.54-12.76.4-14.99,0l.5,11.99c6.01.8,1.81-6.36,2.5-6.99,2.17-1.98,3.97,1.81,3,4,5.93,1.04,2.75-1.84,5.5-5l.49,6.48c5.24,4.07,3.49-9.98,3-10.49ZM1452.64,365.65c.74.43,11.83-.99,12.33-1.71,1.38-1.95-.12-8.69-1.99-10.17-.39-.31-9.15-1-9.87-.91-2.1.25-4.37,6.82-3.72,9.29.06.23,3.04,3.38,3.24,3.5ZM904.2,363.88c-.33.51-1.5,1.23-1.5,1.5v47.96c0,.11,1.39,1.5,1.5,1.5h215.89c.11,0,1.5-1.39,1.5-1.5v-47.96c0-.11-1.39-1.5-1.5-1.5h-215.89ZM1461.85,379.3c1.39-1.45,2.49-.91,2.67-3.9.44-7.28-8.03-10.1-12.65-5.56-8.26,8.11,3.18,16.57,9.98,9.47ZM707.14,408.5c19.39,18.93,46.41-13.17,25.13-30.61-19.8-16.22-42.71,13.45-25.13,30.61ZM1295.5,390.85l-68.53-.06-.44,69h68.96v-68.94ZM537.89,395.85h-68.96l.43,69,68.53-.07v-68.94ZM1455.25,401c.76.93-.81,4.86,2.16,6.34,9.15,4.56,7.98-9.72,6.07-11.05-1.16-.81-10.81-.78-12.09.03-4.08,2.6,3.63,4.39,3.86,4.68ZM1464.41,414.84c-4.37.89-6.32,2.96-11.27,1.76-1.34-.32-1.93-2.28-3.71-1.76v7.99c1.02,1.03,8.84-2.17,10.4-2.03.96.09,5.76,10.22,4.58-5.96ZM1462.14,431.14c-5.81-1.76-12.02-2.07-12.72,5.28-.87,9.12,10.61,5.36,15.99,4.38-1.77-2.58-.64-8.87-3.27-9.66ZM1123.59,437.81h-218.39c-.11,0-1.5,1.39-1.5,1.5v32.97c0,.11,1.39,1.5,1.5,1.5h218.39v-35.97ZM1455.16,447.96c-5.77.99-8.71,11.75-.15,12.81,1.75.22,6.2-.39,7.42-1.47.94-.83,2.01-7.56,1.54-8.51-.96-1.94-6.68-3.2-8.81-2.84ZM629.85,478.77c-.98.32-2.17-1-2.5-1h-65.97c-.11,0-1.5,1.39-1.5,1.5v68.44h69.96v-68.94ZM1308.49,478.77v67.44c0,.11,1.39,1.5,1.5,1.5h66.97c.11,0,1.5-1.39,1.5-1.5v-65.94c0-4.12-11.87-1.55-13.6-1.6-16.56-.47-33.45-1.07-49.87-.7-2.05.05-4.27,1.24-6.5.8ZM1451.42,480.78c-2.53,9.02,19.62,7.09,13.97.53-4.02-4.67-8.29,1.15-13.97-.53ZM417.96,529.73h122.44c.11,0,1.5-1.39,1.5-1.5v-31.97c0-1.24-5.27-2.08-6.67-2.12-34.08-1.01-70.41.64-104.82.67-4.21,0-8.16-1.24-12.45-.05v34.97ZM1451.51,502.66c.96,1.45,15.66,2.61,14.81-2.26-.13-.74-2.8-3.33-3.62-3.54-1.98-.5-3.14,1.69-4.86,1.92-1.84.25-3.92-1.12-4.85-.92-1.55.33-2.19,3.73-1.48,4.81ZM452.94,635.63h68.46c3.16-4.72.33-12.49.41-17.49.24-15.3,3.19-32.73,1.14-48-.18-1.32-1.28-4.45-2.55-4.45h-65.97c-.11,0-1.5,1.39-1.5,1.5v68.44ZM798.34,690.99c4.39,4.77,13.34,16.59,17.86,19.62.93.63,1.6,1.3,2.84.83l50.64-46.45-45.66-50.21c-3.87-1.09-8.4,5.89-11.27,8.36-10.14,8.75-21.21,17.8-31.01,26.95-3.04,2.84-11.48,9.41-9.04,13.05,8.76,9.08,17.1,18.59,25.63,27.85ZM913.35,698.92c2.32,2.53,13.21,17,15.7,16.56l50.51-46.59c.48-1.83-3.02-5.64-4.38-7.3-12.22-15.01-27.73-28.78-40.16-43.8l-3.16.05-49.04,45.47c-.6,2.35,7.36,10.97,9.38,13.3,6.64,7.68,14.29,14.83,21.15,22.31ZM1074.23,653.99c-7.57-8.73-16.59-18.44-24.57-26.88-1.19-1.25-6.07-6.62-7.39-6.4l-50.59,47.38,43.48,49.43,3.83,1.04,49.57-45.61-.42-2.36c-5.44-4.85-9.18-11.18-13.9-16.61ZM1179.18,659.98c-6.86-7.57-14.16-14.85-21.12-22.34-1.69-1.82-8.45-11.3-9.92-10.97-5.07,6.29-50.59,42.99-50.57,46.43.01,2.06,23.16,27.85,26.5,31.48,2.57,2.79,17.23,19.01,19.01,19.01l51.01-45.01c1.82-3.94-3.91-5.61-6.07-7.94-2.92-3.14-5.88-7.39-8.84-10.66ZM520.9,646.62h-64.47c-2.15,0-3.36,6.6-3.54,8.45-1.27,13.54-1.09,39.34-.01,53.04.15,1.92.59,3.62,1.05,5.45h66.97v-66.94ZM449.94,795.48h67.46c.11,0,1.5-1.39,1.5-1.5v-65.94c0-.11-1.39-1.5-1.5-1.5h-67.46v68.94ZM558.88,795.48h67.46c.11,0,1.5-1.39,1.5-1.5v-65.94c0-.11-1.39-1.5-1.5-1.5h-67.46v68.94ZM700.81,726.54h-67.96v68.94h66.47c.11,0,1.5-1.39,1.5-1.5v-67.44ZM1349.47,812.47c-.45-.4-11.21-.16-12.05.43-2.15,1.51-1.31,10.07,2.6,10.6.79.11,8.47-.5,9.02-.94,1.35-1.08,1.62-2.46,1.44-4.1-9.73.71,1.48-3.82-1.01-5.99ZM1434.25,826.59c-.46-.77-4.52-.45-2.31-5.12.6-1.26,4.6-3.46,1.52-5.54-2-1.35-13.22.64-13.96,3.1-1,3.32,2.67,3.07,2.92,3.44,1.19,1.74-6.1,5.08-.98,7.46,2.86,1.33,15.69,1.54,12.8-3.34ZM1540.6,822.65c.32-.54,2.39-.7,2.74-1.72,2.1-6.23-12.33-2.2-14.95-1.46-1.18,2.78,3.24,4.59,2.94,6.35-.21,1.23-3.34,2.37-2.94,4.1.69,3.06,16.83,4.66,14.96-.95-.27-.82-5.28-2.01-2.74-6.33ZM1234.27,818.7c-7.07,1.08-15.89,9.03-16.73,16.24-3.34,28.69,30.78,34.84,38.47,11.48,4.48-13.61-7.28-29.94-21.74-27.72ZM1337.48,841.43c2.97,1.4,14.69-3.42,13.99-6.48-.32-1.4-11.82-4.51-13.98-5.5.83,4.34.83,7.64,0,11.98ZM1430.17,835.76c-3.1-1.02-5.98-.69-8.29,1.63-6.52,6.54,2.71,11.9,3.54,7.53.37-1.96-1.76-1.8-2.3-2.42-4.04-4.61,6.9-3.69,7.31-1.54.24,1.27-2.84,3.36-2,5.46,6.31-.1,5.68-9.37,1.74-10.67ZM1541.08,837.74c-5.67-4.58-15.54,2.03-13.26,6.66.43.87,3.94,4.24,5.03,4.02,3.1-.63.65-2.77-.23-3.66-4.65-4.64,5.05-6.21,6.74-1.82.68,1.77-1.76,1.31-1.98,2.13-1.69,6.37,5.6,2.05,6.03-1.21.23-1.75-1.01-5.06-2.33-6.13ZM1350.46,847.43c-4.06,2.32-12.51-1.42-12.99,4,7.49.15.96,3.32.52,3.98-3.18,4.74,2.12,1.94,3.96,2,2.25.07,5.64,2.03,7.58.6,1.21-.9,2.01-9.74.92-10.57ZM1014.65,923.36v-67.44c0-.11-1.39-1.5-1.5-1.5h-66.97c-.11,0-1.5,1.39-1.5,1.5v67.44h69.96ZM1109.6,923.36v-67.44c0-.11-1.39-1.5-1.5-1.5h-66.97c-.11,0-1.5,1.39-1.5,1.5v66.94c0,.11,1.39,1.5,1.5,1.5h65.97c.33,0,1.52-1.32,2.5-1ZM1181.56,854.43h-68.46c-.11,0-1.5,1.39-1.5,1.5v67.44c.98-.32,2.17,1,2.5,1h65.97c.11,0,1.5-1.39,1.5-1.5v-68.44ZM751.78,856.42v68.44l68.52.59c2.48-1.79.16-4.21.36-6.59,1.52-17.95.8-35,.29-52.95-.04-1.37,2.27-9.49-.7-9.49h-68.46ZM894.71,856.42h-68.46c-3.28,0-.53,12.12-.46,14.45.49,16.1-1.94,36.8-.09,52.04.13,1.07-.03,2.3.98,3.01l68.03-.56v-68.94ZM1346.47,876.41c1.29-.26,3.53.56,4.56-.94,1.2-1.74.08-7.02.48-9.39-5.61-4.87-22.77.76-9.04,3.34-3.29,3.36-3.86,2.29-5,6.98-.71,2.93-.05,2.3,0,4,.12,4.23,1.16,7.66,0,11.98,1.78,1.75,19.52-4.4,11.44-7.95-1.35-.59-3.47-1.67-4.44-2.04,1.05-2.51,4.44,1.43,4.99,1,.25-.2,1.38-5.4,1-5.99-.21-.33-4.53,3.12-3.99-1ZM1432.44,869.41c-.07-1.09.21-2.37-.12-3.38-1.33-4-26.5-1.41-8.87,4.89.93,2.93-6.39-.03-6,3.97.29,1.28,6.11,3.4,7.58,3.46.61.02,9.08-1.6,9.41-1.95,2.37-2.48-4-5.28-6.01-3.99-.58-3.94.59-3.01,4.01-3ZM1541.38,865.41c-2.71.32-16.54-2.91-12.49,3.03.56.82,2.23.12,2.56,2.45.98,6.76-2.28,3.79-3.03,4.55-.41.42-.2,3.77.9,4.52,1.81,1.25,11.22.72,12.59-1.51,2.13-3.48-2.32-3.65-2.57-4.55-.5-1.79,3.83-4.46,2.04-8.48ZM1224.89,933.99c8.43,8.25,21.65,7.48,29.15-1.62,16.5-20.02-11.67-47.31-29.53-27.52-8.24,9.13-8.48,20.47.38,29.14Z"/>
    <path class="st2" d="M1403.45,113.11c-.23,40.66-1.13,81.31-1.44,121.96l-1.2.8-598.05-1.85-1.04-118.44.5-2.5,1.17-.88,600.07.92Z"/>
    <path class="st2" d="M796.76,112.11l1,246.77h-87.45l-71.46-73.43V112.11h157.92ZM683.53,166.27c-5.39,1.21-12.82,9.85-13.61,15.36-3.66,25.32,27.61,34.85,36.93,11.94,6.03-14.82-7.54-30.86-23.32-27.3ZM677.17,246.65c16.14,16.7,42.6-6.32,29.47-25.97s-42.61-2.89-34.3,18.3c.6,1.52,3.74,6.53,4.83,7.66ZM759.51,238.22c-1.89.39-6.11,3.03-7.64,4.35-17.82,15.34.81,44.48,21.14,34.12,20.66-10.53,9.89-43.34-13.5-38.47ZM776.43,289.29c-19.27-18.48-46.31,11.14-27.14,29.62,19.58,18.88,44.7-12.77,27.14-29.62ZM689.83,293.94c-.33-.28-4.32-8.4-5.94-2.37-.28,1.04,4.47,12.82,5.08,13.19,5.75,3.51,10.61-11.31,7.42-13.9-4.9-3.98-4,5.27-6.55,3.07ZM703.94,290.08c-1.77,3.29.54,6.66-.16,10.32-.43,2.25-4.26,4.62.53,5.52,11.87,2.23,4.82-4.38,5.5-9.4.73-5.34,5.57-7.17-5.87-6.44ZM720.8,297.95c2.32-1.17,5.36,2.2,6.42,1.98,2.27-.47,4.66-7.85-.95-8.94-10.88-2.12-8.41,3.81-8.47,11.96.36.35,5.63-.64,5.99-1.02,2.42-2.59-4.69-1.06-2.99-3.98Z"/>
    <path class="st2" d="M1565.36,275.96c.25,17.47-.31,35.01-.04,52.49,1.15,74.07.2,148.69,2.08,222.71.08,3.32.57,21.01-.98,22.08-3.06,2.13-51.45-.12-59.03-.57l-3-296.72h60.97Z"/>
    <path class="st2" d="M839.74,438.81v65.44c0,.25,3.25,3.5,3.5,3.5h341.32c-.66,10.11-1.33,20.31-1.05,30.51.08,2.86,2.32,5.8-.53,7.35l-378.57-2.05c-2.73-.85-.65-3.92-.6-6.3.35-16.28.18-32.76,0-49.05-.17-14.83-2.84-31.11-1.1-45.96.12-1.01.46-3.45,1.55-3.45h35.48Z"/>
    <path class="st2" d="M1347.47,727.54v17.48c0,.28-1.55,2.72-2,3-4.3,2.6-29.86-1.36-36.97,1.5-.03,3.31,4.43,3.95,4.05,7.44-.88,55.29.98,110.66-.01,165.94-.09,5.28.16,10.99-.03,15.91-.44,11.27-11.07,4.03-18.36,6.44l-1.14-217.7h54.47Z"/>
    <path class="st1" d="M798.34,690.99c-8.52-9.26-16.87-18.77-25.63-27.85-2.44-3.64,6-10.2,9.04-13.05,9.8-9.15,20.87-18.2,31.01-26.95,2.87-2.47,7.4-9.45,11.27-8.36l45.66,50.21-50.64,46.45c-1.24.46-1.91-.21-2.84-.83-4.52-3.04-13.47-14.86-17.86-19.62Z"/>
    <path class="st1" d="M913.35,698.92c-6.87-7.48-14.51-14.64-21.15-22.31-2.01-2.33-9.98-10.95-9.38-13.3l49.04-45.47,3.16-.05c12.43,15.02,27.94,28.79,40.16,43.8,1.36,1.67,4.86,5.48,4.38,7.3l-50.51,46.59c-2.49.44-13.38-14.04-15.7-16.56Z"/>
    <path class="st1" d="M1074.23,653.99c4.72,5.44,8.45,11.77,13.9,16.61l.42,2.36-49.57,45.61-3.83-1.04-43.48-49.43,50.59-47.38c1.32-.23,6.2,5.14,7.39,6.4,7.98,8.44,17,18.15,24.57,26.88Z"/>
    <path class="st1" d="M629.85,478.77v68.94h-69.96v-68.44c0-.11,1.39-1.5,1.5-1.5h65.97c.33,0,1.52,1.32,2.5,1Z"/>
    <path class="st1" d="M1181.56,854.43v68.44c0,.11-1.39,1.5-1.5,1.5h-65.97c-.33,0-1.52-1.32-2.5-1v-67.44c0-.11,1.39-1.5,1.5-1.5h68.46Z"/>
    <path class="st1" d="M1109.6,923.36c-.98-.32-2.17,1-2.5,1h-65.97c-.11,0-1.5-1.39-1.5-1.5v-66.94c0-.11,1.39-1.5,1.5-1.5h66.97c.11,0,1.5,1.39,1.5,1.5v67.44Z"/>
    <path class="st1" d="M1014.65,923.36h-69.96v-67.44c0-.11,1.39-1.5,1.5-1.5h66.97c.11,0,1.5,1.39,1.5,1.5v67.44Z"/>
    <path class="st1" d="M536.89,224.01c-5.27,2.63-10.74-.17-15.49-.08-16.37.3-34.62,3.06-51.02,1.13-1.01-.12-3.45-.46-3.45-1.55v-68.44h68.46c.11,0,1.5,1.39,1.5,1.5v67.44Z"/>
    <path class="st1" d="M452.94,635.63v-68.44c0-.11,1.39-1.5,1.5-1.5h65.97c1.27,0,2.37,3.13,2.55,4.45,2.06,15.27-.89,32.7-1.14,48-.08,5,2.74,12.77-.41,17.49h-68.46Z"/>
    <path class="st1" d="M1308.49,478.77c2.23.44,4.45-.76,6.5-.8,16.42-.37,33.31.23,49.87.7,1.73.05,13.6-2.52,13.6,1.6v65.94c0,.11-1.39,1.5-1.5,1.5h-66.97c-.11,0-1.5-1.39-1.5-1.5v-67.44Z"/>
    <path class="st1" d="M1179.18,659.98c2.96,3.26,5.92,7.52,8.84,10.66,2.17,2.32,7.9,4,6.07,7.94l-51.01,45.01c-1.78,0-16.44-16.22-19.01-19.01-3.34-3.64-26.49-29.42-26.5-31.48-.02-3.43,45.5-40.14,50.57-46.43,1.46-.33,8.23,9.15,9.92,10.97,6.95,7.49,14.26,14.77,21.12,22.34Z"/>
    <path class="st1" d="M751.78,856.42h68.46c2.97,0,.66,8.12.7,9.49.51,17.95,1.23,35-.29,52.95-.2,2.37,2.12,4.8-.36,6.59l-68.52-.59v-68.44Z"/>
    <polygon class="st1" points="1295.5 390.85 1295.5 459.79 1226.54 459.79 1226.97 390.79 1295.5 390.85"/>
    <polygon class="st1" points="537.89 395.85 537.89 464.79 469.36 464.85 468.93 395.85 537.89 395.85"/>
    <path class="st1" d="M894.71,856.42v68.94l-68.03.56c-1.01-.71-.85-1.94-.98-3.01-1.85-15.24.58-35.94.09-52.04-.07-2.33-2.82-14.45.46-14.45h68.46Z"/>
    <path class="st1" d="M449.94,795.48v-68.94h67.46c.11,0,1.5,1.39,1.5,1.5v65.94c0,.11-1.39,1.5-1.5,1.5h-67.46Z"/>
    <path class="st1" d="M558.88,795.48v-68.94h67.46c.11,0,1.5,1.39,1.5,1.5v65.94c0,.11-1.39,1.5-1.5,1.5h-67.46Z"/>
    <path class="st1" d="M470.43,236h65.97c.11,0,1.5,1.39,1.5,1.5v65.94c0,.11-1.39,1.5-1.5,1.5h-65.97c-.11,0-1.5-1.39-1.5-1.5v-65.94c0-.27,1.17-.99,1.5-1.5Z"/>
    <path class="st1" d="M700.81,726.54v67.44c0,.11-1.39,1.5-1.5,1.5h-66.47v-68.94h67.96Z"/>
    <path class="st1" d="M537.89,374.87h-67.46c-.11,0-1.5-1.39-1.5-1.5v-64.94c0-.11,1.39-1.5,1.5-1.5h65.97c.11,0,1.5,1.39,1.5,1.5v66.44Z"/>
    <path class="st1" d="M520.9,646.62v66.94h-66.97c-.46-1.83-.9-3.52-1.05-5.45-1.08-13.69-1.26-39.5.01-53.04.17-1.85,1.39-8.45,3.54-8.45h64.47Z"/>
    <path class="st1" d="M417.96,529.73v-34.97c4.29-1.19,8.24.06,12.45.05,34.41-.03,70.74-1.68,104.82-.67,1.39.04,6.67.88,6.67,2.12v31.97c0,.11-1.39,1.5-1.5,1.5h-122.44Z"/>
    <path class="st1" d="M904.2,363.88h215.89c.11,0,1.5,1.39,1.5,1.5v47.96c0,.11-1.39,1.5-1.5,1.5h-215.89c-.11,0-1.5-1.39-1.5-1.5v-47.96c0-.27,1.17-.99,1.5-1.5ZM906.7,367.88c-1.73,0-1.3,31.8-1,34.47,1.18,10.59,3.41,7.65,10.46,7.44,54.74-1.62,110.26.6,164.91,1.09,4.99.05,34.21.13,36.04-2.04s.57-23.89.44-28.53c-.05-1.65,1.78-12.44-1.45-12.44h-209.39Z"/>
    <path class="st1" d="M1123.59,437.81v35.97h-218.39c-.11,0-1.5-1.39-1.5-1.5v-32.97c0-.11,1.39-1.5,1.5-1.5h218.39ZM1115.09,440.81h-206.39c.55,1.28-1,2.96-1,3.5v24.98l210.22.54c4.57-4.86,1.87-10.21,1.76-15.42-.09-4.48,3.31-12.26-4.59-13.6Z"/>
    <path class="st1" d="M607.59,246.23c7.35-1.37,15.87,2.27,20.08,8.42,12.54,18.28-7.4,41.85-26.34,30.33-15.64-9.51-11.45-35.43,6.26-38.74Z"/>
    <path class="st1" d="M604.58,190.27c8.58-1.76,17.44,2.1,22.1,9.43,12.84,20.18-15.4,45.44-32.23,24.23-8.92-11.24-3.92-30.77,10.13-33.65Z"/>
    <path class="st1" d="M1234.27,818.7c14.46-2.22,26.22,14.11,21.74,27.72-7.69,23.36-41.81,17.21-38.47-11.48.84-7.21,9.66-15.16,16.73-16.24Z"/>
    <path class="st1" d="M1224.89,933.99c-8.86-8.67-8.62-20.01-.38-29.14,17.86-19.79,46.03,7.51,29.53,27.52-7.51,9.1-20.72,9.87-29.15,1.62Z"/>
    <path class="st1" d="M707.14,408.5c-17.58-17.16,5.33-46.83,25.13-30.61,21.29,17.44-5.73,49.54-25.13,30.61Z"/>
    <path class="st1" d="M1540.6,822.65c-2.55,4.31,2.46,5.5,2.74,6.33,1.87,5.61-14.27,4.01-14.96.95-.39-1.74,2.73-2.87,2.94-4.1.31-1.76-4.11-3.58-2.94-6.35,2.62-.74,17.06-4.77,14.95,1.46-.34,1.02-2.42,1.18-2.74,1.72Z"/>
    <path class="st1" d="M1434.25,826.59c2.89,4.88-9.94,4.67-12.8,3.34-5.13-2.39,2.16-5.72.98-7.46-.25-.37-3.92-.12-2.92-3.44.74-2.46,11.95-4.45,13.96-3.1,3.08,2.08-.92,4.28-1.52,5.54-2.21,4.67,1.86,4.35,2.31,5.12Z"/>
    <path class="st1" d="M1541.38,865.41c1.79,4.02-2.53,6.7-2.04,8.48.25.9,4.71,1.07,2.57,4.55-1.37,2.23-10.78,2.76-12.59,1.51-1.1-.76-1.31-4.1-.9-4.52.75-.76,4.01,2.21,3.03-4.55-.34-2.33-2.01-1.63-2.56-2.45-4.05-5.94,9.78-2.71,12.49-3.03Z"/>
    <path class="st1" d="M1052.64,287.94c1.88,1.56,2-1.89,2.57-2.03,7-1.71,3.73,9.88,4.4,14.03-4.11.97-5.37-1.49-8.48-3.01.56,2.46-3,4.45-4.5,3.01-.51-.48-.1-13.24.45-14.04,3.01-4.35,5.28,1.8,5.56,2.04Z"/>
    <path class="st1" d="M1452.64,365.65c-.21-.12-3.18-3.27-3.24-3.5-.65-2.47,1.62-9.04,3.72-9.29.72-.09,9.48.61,9.87.91,1.87,1.48,3.37,8.22,1.99,10.17-.5.71-11.59,2.14-12.33,1.71Z"/>
    <path class="st1" d="M1464.42,319.92c-.47,3.94,2.02,12.26-3.65,12.74-1.85.16-3.46-1.41-5.08-1.54-2.45-.2-9.68,2.92-5.77-3.25.52-.82,4.11-.93,2.5-2.93-.28-.35-5.5-.97-1.72-4.76,2.02-2.03,10.43.72,13.73-.26Z"/>
    <path class="st1" d="M1464.42,284.95c.36,3.76.44,4.89-3,6.5,10.86,6.33-9.92,6.89-11.56,4.56-1.96-2.77.26-4.42,2.56-5.58.66-2.66-2.55-1-2.99-1.49-.56-.61.07-2.57,1-3.48,3.22-3.15,9.73.57,13.99-.51Z"/>
    <path class="st1" d="M1432.44,869.41c-3.42-.01-4.6-.94-4.01,3,2.01-1.29,8.38,1.51,6.01,3.99-.33.35-8.8,1.98-9.41,1.95-1.47-.06-7.29-2.18-7.58-3.46-.39-4,6.93-1.05,6-3.97-17.63-6.3,7.54-8.89,8.87-4.89.34,1.01.05,2.29.12,3.38Z"/>
    <path class="st1" d="M1464.19,311.72c-1.07,1.87-13.45,5.7-14.54-.5-2.79-15.79,20.01-9.09,14.54.5Z"/>
    <path class="st1" d="M1010.48,299.77c-.97.6-5.69.29-7.12-.04-9.69-2.23-6.01-17.81,4.6-14.57,4.19,1.28,5.59,12.7,2.52,14.62ZM1006.64,288.95c-1.73-2.23-8.17,8.66.01,6.48-.3-1.38.4-5.95-.01-6.48Z"/>
    <path class="st1" d="M1462.14,431.14c2.62.79,1.5,7.08,3.27,9.66-5.38.99-16.86,4.74-15.99-4.38.7-7.35,6.91-7.04,12.72-5.28Z"/>
    <path class="st1" d="M1461.85,379.3c-6.8,7.1-18.23-1.35-9.98-9.47,4.62-4.54,13.09-1.71,12.65,5.56-.18,3-1.28,2.45-2.67,3.9ZM1460.42,373.87c-1.57.58-7.25-1.56-6.99,1.48l6.99,1.51v-2.99Z"/>
    <path class="st1" d="M1337.48,876.41c1.14-4.7,1.71-3.63,5-6.98-13.74-2.58,3.43-8.21,9.04-3.34-.4,2.37.73,7.65-.48,9.39-1.03,1.5-3.27.68-4.56.94-.58.12-1.34-.06-2,0-.66-1.58-4.34-1.58-5,0-.5-.17-1.38.11-2,0Z"/>
    <path class="st1" d="M1072.3,287.26c1.16,1.57,4.54,11.44,3.32,12.68h-13s4.01-14.99,4.01-14.99c.91-.66,4.98,1.37,5.67,2.31Z"/>
    <path class="st1" d="M1018.86,285.18c8.37-4.81,11.17,12.02,7.85,14.32-4.58,3.17-13.05-1.27-11.26-8.17.3-1.17,2.79-5.78,3.41-6.14ZM1023.64,290.95h-3.99c-.37,8.28,3.92,7.94,3.99,0Z"/>
    <path class="st1" d="M1464.41,337.9c.49.5,2.23,14.56-3,10.49l-.49-6.48c-2.75,3.16.43,6.04-5.5,5,.97-2.19-.83-5.98-3-4-.69.63,3.51,7.79-2.5,6.99l-.5-11.99c2.24.4,14.47-.54,14.99,0Z"/>
    <path class="st1" d="M987.38,285.15c8.38-2.49,8.29,5.68,8.3,11.32.01,6.49-12.47,4.27-12.98-3.08-.18-2.66,2.01-7.44,4.68-8.24ZM991.58,296.87c.56-.52,2.21-8.35-2.41-6.91-2.06.64-1.53,5.15-1.5,6.99,1.03-.18,3.48.33,3.92-.08Z"/>
    <path class="st1" d="M1455.16,447.96c2.13-.37,7.86.9,8.81,2.84.47.95-.6,7.68-1.54,8.51-1.22,1.08-5.67,1.68-7.42,1.47-8.56-1.06-5.63-11.82.15-12.81ZM1461.41,452.8c-1.92.75-8.78-1.75-8.98,1.48,2.12,2.46,9.14,2.73,8.98-1.48Z"/>
    <path class="st1" d="M1455.25,401c-.24-.29-7.94-2.08-3.86-4.68,1.28-.82,10.92-.84,12.09-.03,1.91,1.33,3.09,15.61-6.07,11.05-2.96-1.48-1.39-5.41-2.16-6.34Z"/>
    <path class="st1" d="M1350.46,847.43c1.1.83.29,9.68-.92,10.57-1.94,1.44-5.33-.53-7.58-.6-1.85-.06-7.14,2.74-3.96-2,.44-.66,6.97-3.83-.52-3.98.48-5.41,8.93-1.68,12.99-4Z"/>
    <path class="st1" d="M1349.47,812.47c2.49,2.18-8.72,6.7,1.01,5.99.18,1.64-.09,3.02-1.44,4.1-.55.44-8.23,1.05-9.02.94-3.91-.53-4.75-9.09-2.6-10.6.84-.59,11.6-.83,12.05-.43ZM1344.47,815.47h-5c-1.65,8.44,6.63,1.42,5,0Z"/>
    <path class="st1" d="M1541.08,837.74c1.33,1.07,2.56,4.38,2.33,6.13-.43,3.26-7.72,7.58-6.03,1.21.22-.83,2.66-.36,1.98-2.13-1.68-4.39-11.39-2.82-6.74,1.82.88.88,3.34,3.02.23,3.66-1.09.22-4.61-3.15-5.03-4.02-2.28-4.64,7.59-11.24,13.26-6.66Z"/>
    <path class="st1" d="M1337.48,841.43c.84-4.34.84-7.64,0-11.98,2.17.99,13.66,4.1,13.98,5.5.7,3.06-11.02,7.88-13.99,6.48Z"/>
    <path class="st1" d="M1344.47,882.4c.98.37,3.09,1.45,4.44,2.04,8.08,3.55-9.66,9.69-11.44,7.95,1.16-4.33.12-7.76,0-11.98,2.04,1.02,5.16,1.3,7,2Z"/>
    <path class="st1" d="M1041.63,284.96c-2.45,6.11-2.46,8.87,0,14.98-3.31-.93-8.39,2.95-9.01-1.5-.27-1.93,1.77-1.21,1.99-2.15,1.12-4.7-2.1-7.03-1.98-11.32h8.99Z"/>
    <path class="st1" d="M1464.41,414.84c1.18,16.18-3.62,6.05-4.58,5.96-1.56-.14-9.38,3.05-10.4,2.03v-7.99c1.78-.52,2.38,1.44,3.71,1.76,4.95,1.2,6.9-.87,11.27-1.76Z"/>
    <path class="st1" d="M1464.41,268.97c-.46,3.91,2.01,9.59-3.33,7.97-.73-.22-.63-1.93-1.29-2.03-1.95-.27-9.26,3.14-10.36,2.04v-7.99c1.78-.52,2.38,1.44,3.71,1.76,4.95,1.2,6.9-.87,11.27-1.76Z"/>
    <path class="st1" d="M1430.17,835.76c3.94,1.3,4.57,10.57-1.74,10.67-.84-2.11,2.24-4.19,2-5.46-.41-2.15-11.35-3.07-7.31,1.54.54.62,2.67.46,2.3,2.42-.83,4.37-10.06-.99-3.54-7.53,2.31-2.31,5.19-2.65,8.29-1.63Z"/>
    <path class="st1" d="M1451.42,480.78c5.68,1.68,9.95-4.14,13.97.53,5.65,6.56-16.5,8.5-13.97-.53Z"/>
    <path class="st1" d="M1451.51,502.66c-.71-1.07-.07-4.47,1.48-4.81.93-.2,3.01,1.17,4.85.92,1.72-.23,2.88-2.42,4.86-1.92.82.21,3.49,2.8,3.62,3.54.85,4.87-13.85,3.71-14.81,2.26Z"/>
    <path class="st3" d="M1339.48,876.41c4.2,1.4,2.83.2,5,0,.66-.06,1.42.12,2,0-.54,4.12,3.78.67,3.99,1,.38.59-.75,5.79-1,5.99-.55.43-3.94-3.51-4.99-1-1.83-.7-4.96-.98-7-2-.05-1.69-.71-1.07,0-4,.62.11,1.5-.17,2,0Z"/>
    <path class="st1" d="M759.51,238.22c23.38-4.88,34.16,27.94,13.5,38.47-20.32,10.36-38.96-18.77-21.14-34.12,1.53-1.32,5.76-3.96,7.64-4.35Z"/>
    <path class="st1" d="M776.43,289.29c17.56,16.85-7.55,48.5-27.14,29.62-19.17-18.48,7.86-48.1,27.14-29.62Z"/>
    <path class="st1" d="M683.53,166.27c15.78-3.56,29.35,12.49,23.32,27.3-9.32,22.9-40.59,13.38-36.93-11.94.8-5.51,8.22-14.15,13.61-15.36Z"/>
    <path class="st1" d="M677.17,246.65c-1.1-1.13-4.24-6.14-4.83-7.66-8.31-21.19,20.98-38.25,34.3-18.3s-13.33,42.67-29.47,25.97Z"/>
    <path class="st1" d="M689.83,293.94c2.55,2.2,1.66-7.05,6.55-3.07,3.19,2.59-1.67,17.41-7.42,13.9-.61-.37-5.36-12.16-5.08-13.19,1.62-6.04,5.62,2.08,5.94,2.37Z"/>
    <path class="st1" d="M703.94,290.08c11.45-.72,6.6,1.11,5.87,6.44-.68,5.02,6.36,11.63-5.5,9.4-4.79-.9-.96-3.28-.53-5.52.7-3.66-1.61-7.03.16-10.32Z"/>
    <path class="st1" d="M720.8,297.95c-1.7,2.91,5.41,1.39,2.99,3.98-.35.38-5.63,1.37-5.99,1.02.06-8.15-2.41-14.08,8.47-11.96,5.61,1.1,3.22,8.47.95,8.94-1.06.22-4.1-3.15-6.42-1.98Z"/>
    <path class="st2" d="M906.7,367.88h209.39c3.23,0,1.4,10.79,1.45,12.44.13,4.65,1.32,26.44-.44,28.53s-31.05,2.08-36.04,2.04c-54.65-.5-110.17-2.72-164.91-1.09-7.05.21-9.28,3.15-10.46-7.44-.3-2.67-.73-34.47,1-34.47Z"/>
    <path class="st3" d="M1115.09,440.81c7.9,1.33,4.5,9.12,4.59,13.6.11,5.21,2.8,10.55-1.76,15.42l-210.22-.54v-24.98c0-.54,1.54-2.22,1-3.5h206.39Z"/>
    <path class="st2" d="M1006.64,288.95c.42.53-.28,5.11.01,6.48-8.18,2.17-1.74-8.71-.01-6.48Z"/>
    <path class="st2" d="M1460.42,373.87v2.99s-6.99-1.51-6.99-1.51c-.26-3.04,5.42-.9,6.99-1.48Z"/>
    <path class="st2" d="M1344.47,876.41c-2.17.2-.79,1.4-5,0,.66-1.58,4.34-1.58,5,0Z"/>
    <path class="st2" d="M1023.64,290.95c-.07,7.94-4.36,8.28-3.99,0h3.99Z"/>
    <path class="st2" d="M991.58,296.87c-.44.41-2.89-.1-3.92.08-.03-1.84-.55-6.35,1.5-6.99,4.63-1.44,2.97,6.39,2.41,6.91Z"/>
    <path class="st2" d="M1461.41,452.8c.16,4.21-6.86,3.94-8.98,1.48.2-3.23,7.06-.73,8.98-1.48Z"/>
    <path class="st2" d="M1344.47,815.47c1.64,1.42-6.64,8.44-5,0h5Z"/>
  </g>
  <g id="Mesa_1">
    <rect class="st0" x="466.17" y="156.74" width="68.87" height="68.87"/>
  </g>
  <g id="Mesa_2">
    <rect class="st0" x="467.74" y="236.96" width="68.87" height="68.87"/>
  </g>
  <g id="Mesa_3">
    <rect class="st0" x="468.13" y="308.43" width="68.87" height="68.87"/>
  </g>
  <g id="Mesa_4">
    <rect class="st0" x="468.13" y="397.65" width="68.87" height="68.87"/>
  </g>
  <g id="Mesa_5">
    <rect class="st0" x="558.91" y="480.61" width="68.87" height="68.87"/>
  </g>
  <g id="Mesa_6">
    <rect class="st0" x="453.52" y="568.26" width="68.87" height="68.87"/>
  </g>
  <g id="Mesa_7">
    <rect class="st0" x="453.52" y="648.22" width="68.87" height="68.87"/>
  </g>
  <g id="Mesa_8">
    <rect class="st0" x="448.7" y="728.17" width="68.87" height="68.87"/>
  </g>
  <g id="Mesa_9">
    <rect class="st0" x="558.91" y="728.17" width="68.87" height="68.87"/>
  </g>
  <g id="Mesa_10">
    <rect class="st0" x="632.61" y="727.26" width="68.87" height="68.87"/>
  </g>
  <g id="Mesa_11">
    <rect class="st0" x="750.78" y="857.96" width="68.87" height="68.87"/>
  </g>
  <g id="Mesa_12">
    <rect class="st0" x="824.74" y="857.96" width="68.87" height="68.87"/>
  </g>
  <g id="Mesa13">
    <rect class="st0" x="945.78" y="855.09" width="68.87" height="68.87"/>
  </g>
  <g id="Mesa_14">
    <rect class="st0" x="1038.13" y="855.09" width="68.87" height="68.87"/>
  </g>
  <g id="Mesa_15">
    <rect class="st0" x="1112.22" y="855.35" width="68.87" height="68.87"/>
  </g>
  <g id="Mesa_16">
    <rect class="st0" x="1226.74" y="390.67" width="68.87" height="68.87"/>
  </g>
  <g id="Mesa_17">
    <rect class="st0" x="1310.09" y="479.89" width="68.87" height="68.87"/>
  </g>
  <g id="Mesa_18">
    <rect class="st0" x="785.22" y="629.17" width="68.87" height="68.87" transform="translate(766.3 -389.65) rotate(48.11)"/>
  </g>
  <g id="Mesa_20">
    <rect class="st0" x="896.76" y="633.67" width="68.87" height="68.87" transform="translate(806.72 -471.19) rotate(48.11)"/>
  </g>
  <g id="Mesa_21">
    <rect class="st0" x="1005.65" y="637.59" width="68.87" height="68.87" transform="translate(845.81 -550.95) rotate(48.11)"/>
  </g>
  <g id="Mesa_22">
    <rect class="st0" x="1110.13" y="641.5" width="68.87" height="68.87" transform="translate(883.43 -627.42) rotate(48.11)"/>
  </g>
  <g id="Mesa_23">
    <circle class="st0" cx="609.85" cy="211.65" r="20.48"/>
  </g>
  <g id="Mesa_24">
    <circle class="st0" cx="609.85" cy="267.93" r="20.48"/>
  </g>
  <g id="Mesa_25">
    <circle class="st0" cx="689.41" cy="187.07" r="20.48"/>
  </g>
  <g id="Mesa_26">
    <circle class="st0" cx="689.41" cy="233.76" r="20.48"/>
  </g>
  <g id="Mesa_27">
    <circle class="st0" cx="764.02" cy="258.8" r="20.48"/>
  </g>
  <g id="Capa_28">
    <circle class="st0" cx="761.93" cy="305.83" r="20.48"/>
  </g>
  <g id="Capa_39">
    <circle class="st0" cx="719.93" cy="394.98" r="20.48"/>
  </g>
  <g id="Capa_30">
    <circle class="st0" cx="1237.11" cy="841.98" r="20.48"/>
  </g>
  <g id="Capa_31">
    <circle class="st0" cx="1238.87" cy="920.7" r="20.48"/>
  </g>
</svg>